<?xml version="1.0" encoding="UTF-8"?>
<svg id="Layer_2" data-name="Layer 2" xmlns="http://www.w3.org/2000/svg" viewBox="0 0 2240.39 603.38">
  <defs>
    <style>
      .cls-1 {
        font-family: JostRoman-Bold, Jost;
        font-size: 216.21px;
        font-variation-settings: 'wght' 700;
        font-weight: 700;
      }

      .cls-1, .cls-2 {
        fill: #fff;
      }
    </style>
  </defs>
  <g id="Layer_1-2" data-name="Layer 1">
    <g>
      <g>
        <polygon class="cls-2" points="351.01 343.55 351.01 602.58 255.99 602.58 255.99 353.88 220.33 353.88 220.33 602.58 127.38 602.58 127.38 353.88 91.7 353.88 91.7 602.58 0 602.58 0 344.42 95.4 248.07 114.56 248.07 175.94 310.05 237.3 248.07 256.45 248.07 351.01 343.55"/>
        <polygon class="cls-2" points="1106.44 343.55 1106.44 602.58 1011.42 602.58 1011.42 353.88 975.76 353.88 975.76 602.58 882.81 602.58 882.81 353.88 847.13 353.88 847.13 602.58 755.44 602.58 755.44 344.42 850.83 248.07 869.99 248.07 931.37 310.05 992.73 248.07 1011.89 248.07 1106.44 343.55"/>
        <path class="cls-2" d="M628.79,248.27h-153.36l-99.36,99.36v165.55l89.4,89.4h173.29l91.62-91.62v-161.1l-101.59-101.59ZM637.59,509.79h-168.7v-168.7h168.7v168.7Z"/>
        <polygon class="cls-2" points="1867.96 350.04 1867.96 511.43 1867.68 511.78 1867.68 603.38 1774.83 603.38 1774.83 510.25 1775.18 510.25 1775.18 341.24 1606.51 341.24 1606.51 510.25 1606.79 510.25 1606.79 603.38 1513.6 603.38 1513.6 446.83 1513.67 446.83 1513.67 347.82 1613.02 248.26 1766.39 248.26 1867.96 350.04"/>
        <polygon class="cls-2" points="2240.39 248.26 2240.39 342.35 2110.78 342.35 2110.78 603.38 2017.45 603.38 2017.45 342.35 1887.76 342.35 1887.76 248.26 2240.39 248.26"/>
        <polygon class="cls-2" points="1270.15 347.4 1270.15 383.06 1486.04 383.06 1486.04 476.05 1270.15 476.05 1270.15 511.71 1486.04 511.71 1486.04 603.38 1227.85 603.38 1226.6 602.2 1226.6 603.38 1131.54 603.38 1131.54 440.05 1319.17 252.41 1486.04 252.41 1486.04 347.4 1270.15 347.4"/>
        <polygon class="cls-2" points="1179.94 252.4 1197.17 283.6 1228.38 300.83 1197.17 318.07 1179.94 349.27 1162.71 318.07 1131.5 300.83 1162.71 283.6 1179.94 252.4"/>
      </g>
      <text class="cls-1" transform="translate(0 183.78)"><tspan x="0" y="0">Steel the</tspan></text>
    </g>
  </g>
</svg>